<?xml version="1.0" standalone="no"?><!DOCTYPE svg PU
        BLIC "-//W3C//DTD SVG 1.1//EN" "http://www.w3.org/Graphics/SVG/1.1/DTD/svg11.dtd"><svg t="1584092458535" class="icon" viewBox="0 0 1024 1024" version="1.1" xmlns="http://www.w3.org/2000/svg" p-id="11248" xmlns:xlink="http://www.w3.org/1999/xlink" width="200" height="200"><defs><style type="text/css"></style></defs><path d="M756.6 63.9H264.9c-63.8 0-116 52.2-116 116v663.6c0 63.8 52.2 116 116 116h363.5c6.8 0 14.1-1.2 17.8-3.3s12.4-10.8 12.4-10.8L855 752.8s9.5-8.2 14.2-14.5c2.2-2.9 3.1-6.3 3.4-9.2V179.9c0-63.8-52.2-116-116-116z m-60.8 332c0 17.6-14.4 32-32 32h-121v53.3h96c17.6 0 32 14.4 32 32s-14.4 32-32 32h-96v131.9c0 17.6-14.4 32-32 32s-32-14.4-32-32V545.2h-96c-17.6 0-32-14.4-32-32s14.4-32 32-32h96v-53.3h-121c-17.6 0-32-14.4-32-32s14.4-32 32-32H445l-67.4-67.4c-12.4-12.4-12.4-32.8 0-45.3 12.4-12.4 32.8-12.4 45.3 0l88 88 88-88c12.4-12.4 32.8-12.4 45.3 0 12.4 12.4 12.4 32.8 0 45.3l-67.4 67.4H664c17.4 0 31.8 14.4 31.8 32z" fill="#FFAE00" p-id="11249"></path><path d="M615.5 959.6V820.5s-8.7-115 113.5-115h143.6s0.1 11.9 0.1 17.8-0.5 11.3-3.4 15-14.2 14.5-14.2 14.5L658.5 945.5s-7.5 8.1-12.4 10.8-13.9 3.3-17.8 3.3h-12.8z" fill="#FFFFFF" opacity=".4" p-id="11250"></path></svg>