<?xml version="1.0" standalone="no"?><!DOCTYPE svg PUBLIC "-//W3C//DTD SVG 1.1//EN" "http://www.w3.org/Graphics/SVG/1.1/DTD/svg11.dtd"><svg class="icon" viewBox="0 0 1024 1024" version="1.1" xmlns="http://www.w3.org/2000/svg"  xmlns:xlink="http://www.w3.org/1999/xlink" width="200" height="200"><defs><style type="text/css"></style></defs><path d="M704 469.333333h-151.466667v-149.333333c0-21.333333-17.066667-40.533333-40.533333-40.533333-21.333333-2.133333-42.666667 14.933333-42.666667 40.533333v149.333333h-149.333333c-21.333333 0-40.533333 17.066667-40.533333 40.533334 0 25.6 19.2 44.8 40.533333 40.533333h149.333333V704c0 21.333333 17.066667 40.533333 40.533334 40.533333 25.6 0 44.8-19.2 40.533333-40.533333v-151.466667H704c21.333333 0 40.533333-17.066667 40.533333-40.533333 2.133333-21.333333-14.933333-42.666667-40.533333-42.666667z" fill="" ></path><path d="M512 0C230.4 0 0 230.4 0 512s230.4 512 512 512 512-230.4 512-512S793.6 0 512 0z m0 938.666667C277.333333 938.666667 85.333333 746.666667 85.333333 512S277.333333 85.333333 512 85.333333s426.666667 192 426.666667 426.666667-192 426.666667-426.666667 426.666667z"></path></svg>